<?xml version="1.0" encoding="UTF-8"?>
<svg width="12px" height="14px" viewBox="0 0 12 14" version="1.1" xmlns="http://www.w3.org/2000/svg" xmlns:xlink="http://www.w3.org/1999/xlink">
    <title>1.通用/2.Icon图标/stroke描边/表格移动</title>
    <g id="页面-1" stroke="none" stroke-width="1" fill="none" fill-rule="evenodd">
        <g id="2-4合同模板管理-表头配置悬停状态" transform="translate(-396.000000, -433.000000)">
            <g id="内容" transform="translate(358.000000, 108.000000)">
                <g id="表格" transform="translate(24.000000, 72.000000)">
                    <g id="4.数据展示/13.表格/table/optional备份-6" transform="translate(0.000000, 240.000000)">
                        <g id="1.通用/2.Icon图标/stroke描边/表格移动" transform="translate(12.000000, 12.000000)">
                            <rect id="矩形" fill="#000000" fill-rule="nonzero" opacity="0" x="0" y="0" width="16" height="16"></rect>
                            <path d="M11.9632,1.904 C12.1018964,1.90136954 12.2347278,1.95988555 12.3264,2.064 L13.8584,3.6968 C14.0434789,3.89759214 14.0353263,4.20916158 13.84,4.4 C13.7262601,4.47864413 13.5944001,4.52709374 13.4568,4.5408 L13.4536,4.544 C13.3157661,4.5424918 13.1845439,4.48468467 13.0904,4.384 L12.4232,3.66891497 L12.4232,12.429915 L13.0504,11.76 C13.2407639,11.5649372 13.5523984,11.5586213 13.7505093,11.745811 C13.9486203,11.9330007 13.9599667,12.2444927 13.776,12.4456 L12.244,14.08 C12.204,14.1808 12.0624,14.24 11.924,14.24 L11.92,14.24 C11.7813036,14.2426305 11.6484722,14.1841145 11.5568,14.08 L10.0248,12.4472 C9.90204354,12.3172982 9.85791365,12.1317743 9.90903366,11.9605132 C9.96015366,11.7892521 10.0987572,11.6582725 10.2726337,11.6169131 C10.4465101,11.5755538 10.6292435,11.6300982 10.752,11.76 L11.4152,12.469915 L11.4152,3.71591497 L10.7928,4.3832 C10.6711256,4.51621106 10.4871911,4.5732902 10.3115916,4.53253016 C10.135992,4.49177011 9.99600833,4.3595033 9.94536709,4.18649447 C9.89472585,4.01348563 9.9412946,3.82661326 10.0672,3.6976 L11.6,2.064 C11.6941439,1.96331533 11.8253661,1.9055082 11.9632,1.904 Z M7.9696,5.8544 L2.6672,5.8544 C2.38884849,5.8544 2.1632,5.62875151 2.1632,5.3504 C2.1632,5.07204849 2.38884849,4.8464 2.6672,4.8464 L7.9696,4.8464 C8.10366203,4.84510462 8.23261041,4.8977884 8.32741101,4.99258899 C8.4222116,5.08738959 8.47489538,5.21633797 8.47362334,5.3504 C8.46931155,5.6269557 8.2461557,5.85011155 7.9696,5.8544 Z M7.9696,8.3952 L2.6672,8.3952 C2.38884849,8.3952 2.16320002,8.16955151 2.16320002,7.8912 C2.16320002,7.61284849 2.38884849,7.38720001 2.6672,7.3872 L7.9696,7.3872 C8.10366203,7.38590462 8.23261041,7.4385884 8.32741101,7.53338899 C8.4222116,7.62818959 8.47489538,7.75713797 8.47362334,7.8912 C8.46931155,8.1677557 8.2461557,8.39091155 7.9696,8.3952 Z M7.9496,11.2984 L2.6472,11.2984 C2.36884849,11.2984 2.1432,11.0727515 2.1432,10.7944 C2.1432,10.5160485 2.36884849,10.2904 2.6472,10.2904 L7.9496,10.2904 C8.08366203,10.2891046 8.21261041,10.3417884 8.30741101,10.436589 C8.4022116,10.5313896 8.45489538,10.660338 8.45362334,10.7944 C8.44931155,11.0709557 8.2261557,11.2941115 7.9496,11.2984 Z" id="形状" fill="#96999C"></path>
                        </g>
                    </g>
                </g>
            </g>
        </g>
    </g>
</svg>